<?xml version="1.0" encoding="UTF-8"?>
<!-- Generated by Pixelmator Pro 3.2.3 -->
<svg width="144" height="144" viewBox="0 0 144 144" xmlns="http://www.w3.org/2000/svg" xmlns:xlink="http://www.w3.org/1999/xlink">
    <g id="Group">
        <path id="Path" fill="none" stroke="#efefef" stroke-width="7.2" stroke-linecap="round" stroke-linejoin="round" d="M 46.111599 70.078003 L 25.127501 69.5214"/>
        <path id="path1" fill="none" stroke="#efefef" stroke-width="7.2" stroke-linecap="round" stroke-linejoin="round" d="M 72.000198 25.199997 C 97.847122 25.199997 118.800201 46.153069 118.800201 72 C 118.800201 97.846924 97.847122 118.800003 72.000198 118.800003 C 46.153271 118.800003 25.200201 97.846924 25.200201 72 C 25.200201 46.153069 46.153271 25.199997 72.000198 25.199997 Z"/>
        <path id="path2" fill="none" stroke="#efefef" stroke-width="7.2" stroke-linecap="round" stroke-linejoin="round" d="M 72.000099 51.308998 C 83.427368 51.308998 92.691002 60.572632 92.691002 71.999901 C 92.691002 83.42717 83.427368 92.690796 72.000099 92.690796 C 60.57283 92.690796 51.309196 83.42717 51.309196 71.999901 C 51.309196 60.572632 60.57283 51.308998 72.000099 51.308998 Z"/>
        <path id="path3" fill="#efefef" stroke="none" d="M 22.656401 63.680603 C 22.4603 63.647499 22.274401 63.7799 22.2428 63.976105 C 20.3986 75.411598 22.5495 87.137703 28.3398 97.178299 C 34.1301 107.219002 43.202099 114.954002 54.023499 119.084999 C 54.209202 119.155998 54.416901 119.060997 54.4865 118.875 L 63.136501 95.723198 C 63.2061 95.537003 63.111301 95.329803 62.926102 95.2575 C 57.640598 93.195503 53.211399 89.3927 50.373501 84.471703 C 47.535599 79.550797 46.462601 73.8125 47.325199 68.205002 C 47.3554 68.0084 47.223499 67.822601 47.0275 67.789597 L 22.656401 63.680603 Z"/>
        <path id="path4" fill="none" stroke="#efefef" stroke-width="7.2" stroke-linecap="round" stroke-linejoin="round" d="M 22.656401 63.680603 C 22.4603 63.647499 22.274401 63.7799 22.2428 63.976105 C 20.3986 75.411598 22.5495 87.137703 28.3398 97.178299 C 34.1301 107.219002 43.202099 114.954002 54.023499 119.084999 C 54.209202 119.155998 54.416901 119.060997 54.4865 118.875 L 63.136501 95.723198 C 63.2061 95.537003 63.111301 95.329803 62.926102 95.2575 C 57.640598 93.195503 53.211399 89.3927 50.373501 84.471703 C 47.535599 79.550797 46.462601 73.8125 47.325199 68.205002 C 47.3554 68.0084 47.223499 67.822601 47.0275 67.789597 L 22.656401 63.680603 Z"/>
        <path id="path5" fill="none" stroke="#efefef" stroke-width="7.2" stroke-linecap="round" stroke-linejoin="round" d="M 93.388702 80.596397 L 115.199997 86.400002"/>
        <path id="path6" fill="none" stroke="#efefef" stroke-width="7.2" stroke-linecap="round" stroke-linejoin="round" d="M 75.600197 50.399902 L 79.383301 26.492599"/>
    </g>
</svg>
