<?xml version="1.0" encoding="UTF-8"?>
<!-- Generated by Pixelmator Pro 3.2.3 -->
<svg width="72" height="72" viewBox="0 0 72 72" xmlns="http://www.w3.org/2000/svg" xmlns:xlink="http://www.w3.org/1999/xlink">
    <g id="Group">
        <path id="Path" fill="none" stroke="#efefef" stroke-width="3.6" stroke-linecap="round" stroke-linejoin="round" d="M 23.055799 35.039001 L 12.5638 34.7607"/>
        <path id="path1" fill="none" stroke="#efefef" stroke-width="3.6" stroke-linecap="round" stroke-linejoin="round" d="M 36.000099 12.599998 C 48.923561 12.599998 59.400101 23.076534 59.400101 36 C 59.400101 48.923462 48.923561 59.400002 36.000099 59.400002 C 23.076635 59.400002 12.600101 48.923462 12.600101 36 C 12.600101 23.076534 23.076635 12.599998 36.000099 12.599998 Z"/>
        <path id="path2" fill="none" stroke="#efefef" stroke-width="3.6" stroke-linecap="round" stroke-linejoin="round" d="M 36.000099 25.654598 C 41.713707 25.654598 46.345501 30.286392 46.345501 36 C 46.345501 41.713608 41.713707 46.345398 36.000099 46.345398 C 30.286493 46.345398 25.654699 41.713608 25.654699 36 C 25.654699 30.286392 30.286493 25.654598 36.000099 25.654598 Z"/>
        <path id="path3" fill="#efefef" stroke="none" d="M 11.3282 31.840302 C 11.2302 31.823799 11.1372 31.8899 11.1214 31.988098 C 10.1993 37.705799 11.2747 43.568901 14.1699 48.589199 C 17.065001 53.609501 21.601 57.476799 27.0117 59.5425 C 27.104601 59.577999 27.208401 59.530701 27.2432 59.437599 L 31.568199 47.861599 C 31.603001 47.768501 31.555599 47.664902 31.462999 47.628799 C 28.820299 46.597698 26.6057 44.696301 25.186701 42.235901 C 23.767799 39.775398 23.2313 36.9062 23.6626 34.102501 C 23.6777 34.0042 23.611799 33.911301 23.5137 33.894798 L 11.3282 31.840302 Z"/>
        <path id="path4" fill="none" stroke="#efefef" stroke-width="3.6" stroke-linecap="round" stroke-linejoin="round" d="M 11.3282 31.840302 C 11.2302 31.823799 11.1372 31.8899 11.1214 31.988098 C 10.1993 37.705799 11.2747 43.568901 14.1699 48.589199 C 17.065001 53.609501 21.601 57.476799 27.0117 59.5425 C 27.104601 59.577999 27.208401 59.530701 27.2432 59.437599 L 31.568199 47.861599 C 31.603001 47.768501 31.555599 47.664902 31.462999 47.628799 C 28.820299 46.597698 26.6057 44.696301 25.186701 42.235901 C 23.767799 39.775398 23.2313 36.9062 23.6626 34.102501 C 23.6777 34.0042 23.611799 33.911301 23.5137 33.894798 L 11.3282 31.840302 Z"/>
        <path id="path5" fill="none" stroke="#efefef" stroke-width="3.6" stroke-linecap="round" stroke-linejoin="round" d="M 46.694401 40.298199 L 57.600101 43.200001"/>
        <path id="path6" fill="none" stroke="#efefef" stroke-width="3.6" stroke-linecap="round" stroke-linejoin="round" d="M 37.800098 25.200001 L 39.6917 13.2463"/>
    </g>
</svg>
