<svg width="144" height="144" viewBox="0 0 144 144" fill="none" xmlns="http://www.w3.org/2000/svg">
<g clip-path="url(#clip0_420_613)">
<path d="M46.1116 70.078L25.1275 69.5214" stroke="#EFEFEF" stroke-width="7.2"/>
<circle cx="72.0002" cy="72" r="46.8" transform="rotate(-90 72.0002 72)" stroke="#EFEFEF" stroke-width="7.2"/>
<circle cx="72.0001" cy="71.9999" r="20.6909" transform="rotate(-90 72.0001 71.9999)" stroke="#EFEFEF" stroke-width="7.2"/>
<mask id="path-4-outside-1_420_613" maskUnits="userSpaceOnUse" x="17.6" y="59.4" width="50" height="64" fill="black">
<rect fill="white" x="17.6" y="59.4" width="50" height="64"/>
<path d="M22.6564 63.6806C22.4603 63.6475 22.2744 63.7799 22.2428 63.9761C20.3986 75.4116 22.5495 87.1377 28.3398 97.1783C34.1301 107.219 43.2021 114.954 54.0235 119.085C54.2092 119.156 54.4169 119.061 54.4865 118.875L63.1365 95.7232C63.2061 95.537 63.1113 95.3298 62.9261 95.2575C57.6406 93.1955 53.2114 89.3927 50.3735 84.4717C47.5356 79.5508 46.4626 73.8125 47.3252 68.205C47.3554 68.0084 47.2235 67.8226 47.0275 67.7896L22.6564 63.6806Z"/>
</mask>
<path d="M22.6564 63.6806C22.4603 63.6475 22.2744 63.7799 22.2428 63.9761C20.3986 75.4116 22.5495 87.1377 28.3398 97.1783C34.1301 107.219 43.2021 114.954 54.0235 119.085C54.2092 119.156 54.4169 119.061 54.4865 118.875L63.1365 95.7232C63.2061 95.537 63.1113 95.3298 62.9261 95.2575C57.6406 93.1955 53.2114 89.3927 50.3735 84.4717C47.5356 79.5508 46.4626 73.8125 47.3252 68.205C47.3554 68.0084 47.2235 67.8226 47.0275 67.7896L22.6564 63.6806Z" fill="#EFEFEF"/>
<path d="M22.6564 63.6806C22.4603 63.6475 22.2744 63.7799 22.2428 63.9761C20.3986 75.4116 22.5495 87.1377 28.3398 97.1783C34.1301 107.219 43.2021 114.954 54.0235 119.085C54.2092 119.156 54.4169 119.061 54.4865 118.875L63.1365 95.7232C63.2061 95.537 63.1113 95.3298 62.9261 95.2575C57.6406 93.1955 53.2114 89.3927 50.3735 84.4717C47.5356 79.5508 46.4626 73.8125 47.3252 68.205C47.3554 68.0084 47.2235 67.8226 47.0275 67.7896L22.6564 63.6806Z" stroke="#EFEFEF" stroke-width="7.2" mask="url(#path-4-outside-1_420_613)"/>
<path d="M93.3887 80.5964L115.2 86.4" stroke="#EFEFEF" stroke-width="7.2"/>
<path d="M75.6002 50.3999L79.3833 26.4926" stroke="#EFEFEF" stroke-width="7.2"/>
</g>
<defs>
<clipPath id="clip0_420_613">
<rect width="144" height="144" fill="white"/>
</clipPath>
</defs>
</svg>
