<svg width="72" height="72" viewBox="0 0 72 72" fill="none" xmlns="http://www.w3.org/2000/svg">
<g clip-path="url(#clip0_420_506)">
<path d="M23.0558 35.039L12.5638 34.7607" stroke="#EFEFEF" stroke-width="3.6"/>
<circle cx="36.0001" cy="36" r="23.4" transform="rotate(-90 36.0001 36)" stroke="#EFEFEF" stroke-width="3.6"/>
<circle cx="36.0001" cy="36" r="10.3454" transform="rotate(-90 36.0001 36)" stroke="#EFEFEF" stroke-width="3.6"/>
<mask id="path-4-outside-1_420_506" maskUnits="userSpaceOnUse" x="8.79999" y="29.2" width="25" height="33" fill="black">
<rect fill="white" x="8.79999" y="29.2" width="25" height="33"/>
<path d="M11.3282 31.8403C11.2302 31.8238 11.1372 31.8899 11.1214 31.9881C10.1993 37.7058 11.2747 43.5689 14.1699 48.5892C17.065 53.6095 21.601 57.4768 27.0117 59.5425C27.1046 59.578 27.2084 59.5307 27.2432 59.4376L31.5682 47.8616C31.603 47.7685 31.5556 47.6649 31.463 47.6288C28.8203 46.5977 26.6057 44.6963 25.1867 42.2359C23.7678 39.7754 23.2313 36.9062 23.6626 34.1025C23.6777 34.0042 23.6118 33.9113 23.5137 33.8948L11.3282 31.8403Z"/>
</mask>
<path d="M11.3282 31.8403C11.2302 31.8238 11.1372 31.8899 11.1214 31.9881C10.1993 37.7058 11.2747 43.5689 14.1699 48.5892C17.065 53.6095 21.601 57.4768 27.0117 59.5425C27.1046 59.578 27.2084 59.5307 27.2432 59.4376L31.5682 47.8616C31.603 47.7685 31.5556 47.6649 31.463 47.6288C28.8203 46.5977 26.6057 44.6963 25.1867 42.2359C23.7678 39.7754 23.2313 36.9062 23.6626 34.1025C23.6777 34.0042 23.6118 33.9113 23.5137 33.8948L11.3282 31.8403Z" fill="#EFEFEF"/>
<path d="M11.3282 31.8403C11.2302 31.8238 11.1372 31.8899 11.1214 31.9881C10.1993 37.7058 11.2747 43.5689 14.1699 48.5892C17.065 53.6095 21.601 57.4768 27.0117 59.5425C27.1046 59.578 27.2084 59.5307 27.2432 59.4376L31.5682 47.8616C31.603 47.7685 31.5556 47.6649 31.463 47.6288C28.8203 46.5977 26.6057 44.6963 25.1867 42.2359C23.7678 39.7754 23.2313 36.9062 23.6626 34.1025C23.6777 34.0042 23.6118 33.9113 23.5137 33.8948L11.3282 31.8403Z" stroke="#EFEFEF" stroke-width="3.6" mask="url(#path-4-outside-1_420_506)"/>
<path d="M46.6944 40.2982L57.6001 43.2" stroke="#EFEFEF" stroke-width="3.6"/>
<path d="M37.8001 25.2L39.6917 13.2463" stroke="#EFEFEF" stroke-width="3.6"/>
</g>
<defs>
<clipPath id="clip0_420_506">
<rect width="72" height="72" fill="white"/>
</clipPath>
</defs>
</svg>
