<svg width="40" height="40" viewBox="0 0 40 40" fill="none" xmlns="http://www.w3.org/2000/svg">
<path d="M12.8088 19.4661L6.97986 19.3115" stroke="#EFEFEF" stroke-width="2"/>
<circle cx="20" cy="20" r="13" transform="rotate(-90 20 20)" stroke="#EFEFEF" stroke-width="2"/>
<circle cx="20.0001" cy="20" r="5.74747" transform="rotate(-90 20.0001 20)" stroke="#EFEFEF" stroke-width="2"/>
<mask id="path-4-outside-1_315_80" maskUnits="userSpaceOnUse" x="5" y="16" width="14" height="19" fill="black">
<rect fill="white" x="5" y="16" width="14" height="19"/>
<path d="M6.29345 17.689C6.23899 17.6799 6.18735 17.7166 6.17856 17.7712C5.66629 20.9477 6.26375 24.2049 7.87217 26.994C9.48058 29.783 12.0006 31.9316 15.0065 33.0792C15.0581 33.0989 15.1158 33.0726 15.1351 33.0209L17.5379 26.5898C17.5572 26.5381 17.5309 26.4805 17.4795 26.4604C16.0113 25.8876 14.7809 24.8313 13.9926 23.4644C13.2043 22.0974 12.9063 20.5035 13.1459 18.9458C13.1543 18.8912 13.1177 18.8396 13.0632 18.8304L6.29345 17.689Z"/>
</mask>
<path d="M6.29345 17.689C6.23899 17.6799 6.18735 17.7166 6.17856 17.7712C5.66629 20.9477 6.26375 24.2049 7.87217 26.994C9.48058 29.783 12.0006 31.9316 15.0065 33.0792C15.0581 33.0989 15.1158 33.0726 15.1351 33.0209L17.5379 26.5898C17.5572 26.5381 17.5309 26.4805 17.4795 26.4604C16.0113 25.8876 14.7809 24.8313 13.9926 23.4644C13.2043 22.0974 12.9063 20.5035 13.1459 18.9458C13.1543 18.8912 13.1177 18.8396 13.0632 18.8304L6.29345 17.689Z" fill="#EFEFEF"/>
<path d="M6.29345 17.689C6.23899 17.6799 6.18735 17.7166 6.17856 17.7712C5.66629 20.9477 6.26375 24.2049 7.87217 26.994C9.48058 29.783 12.0006 31.9316 15.0065 33.0792C15.0581 33.0989 15.1158 33.0726 15.1351 33.0209L17.5379 26.5898C17.5572 26.5381 17.5309 26.4805 17.4795 26.4604C16.0113 25.8876 14.7809 24.8313 13.9926 23.4644C13.2043 22.0974 12.9063 20.5035 13.1459 18.9458C13.1543 18.8912 13.1177 18.8396 13.0632 18.8304L6.29345 17.689Z" stroke="#EFEFEF" stroke-width="2" mask="url(#path-4-outside-1_315_80)"/>
<path d="M25.9413 22.3879L32.0001 24" stroke="#EFEFEF" stroke-width="2"/>
<path d="M21.0001 14L22.0509 7.35906" stroke="#EFEFEF" stroke-width="2"/>
</svg>
