<svg width="20" height="20" viewBox="0 0 20 20" fill="none" xmlns="http://www.w3.org/2000/svg">
<path d="M6.40438 9.73307L3.48993 9.65575" stroke="#EFEFEF"/>
<circle cx="10" cy="10" r="6.5" transform="rotate(-90 10 10)" stroke="#EFEFEF"/>
<circle cx="10" cy="9.99998" r="2.87374" transform="rotate(-90 10 9.99998)" stroke="#EFEFEF"/>
<mask id="path-4-outside-1_315_54" maskUnits="userSpaceOnUse" x="2" y="8" width="8" height="10" fill="black">
<rect fill="white" x="2" y="8" width="8" height="10"/>
<path d="M3.19603 8.85284C3.14157 8.84365 3.0899 8.88038 3.08149 8.93497C2.83939 10.5076 3.14021 12.1169 3.93608 13.497C4.73196 14.8771 5.97422 15.9435 7.45661 16.5216C7.50807 16.5417 7.56574 16.5153 7.58507 16.4636L8.75146 13.3417C8.77079 13.29 8.74444 13.2325 8.69329 13.2117C7.9797 12.9214 7.38213 12.4012 6.99632 11.7322C6.61052 11.0632 6.45957 10.2854 6.5657 9.52238C6.5733 9.46768 6.53675 9.41609 6.48229 9.40691L3.19603 8.85284Z"/>
</mask>
<path d="M3.19603 8.85284C3.14157 8.84365 3.0899 8.88038 3.08149 8.93497C2.83939 10.5076 3.14021 12.1169 3.93608 13.497C4.73196 14.8771 5.97422 15.9435 7.45661 16.5216C7.50807 16.5417 7.56574 16.5153 7.58507 16.4636L8.75146 13.3417C8.77079 13.29 8.74444 13.2325 8.69329 13.2117C7.9797 12.9214 7.38213 12.4012 6.99632 11.7322C6.61052 11.0632 6.45957 10.2854 6.5657 9.52238C6.5733 9.46768 6.53675 9.41609 6.48229 9.40691L3.19603 8.85284Z" fill="#EFEFEF"/>
<path d="M3.19603 8.85284C3.14157 8.84365 3.0899 8.88038 3.08149 8.93497C2.83939 10.5076 3.14021 12.1169 3.93608 13.497C4.73196 14.8771 5.97422 15.9435 7.45661 16.5216C7.50807 16.5417 7.56574 16.5153 7.58507 16.4636L8.75146 13.3417C8.77079 13.29 8.74444 13.2325 8.69329 13.2117C7.9797 12.9214 7.38213 12.4012 6.99632 11.7322C6.61052 11.0632 6.45957 10.2854 6.5657 9.52238C6.5733 9.46768 6.53675 9.41609 6.48229 9.40691L3.19603 8.85284Z" stroke="#EFEFEF" mask="url(#path-4-outside-1_315_54)"/>
<path d="M12.9707 11.1939L16 12" stroke="#EFEFEF"/>
<path d="M10.5 7L11.0255 3.67954" stroke="#EFEFEF"/>
</svg>
