<?xml version="1.0" encoding="UTF-8"?>
<!-- Generated by Pixelmator Pro 3.2.3 -->
<svg width="20" height="20" viewBox="0 0 20 20" xmlns="http://www.w3.org/2000/svg" xmlns:xlink="http://www.w3.org/1999/xlink">
    <path id="Path" fill="none" stroke="#efefef" stroke-linecap="round" stroke-linejoin="round" d="M 6.40438 9.73307 L 3.48993 9.65575"/>
    <path id="path1" fill="none" stroke="#efefef" stroke-linecap="round" stroke-linejoin="round" d="M 10 3.5 C 13.58985 3.5 16.5 6.41015 16.5 10 C 16.5 13.589851 13.58985 16.5 10 16.5 C 6.410149 16.5 3.5 13.589851 3.5 10 C 3.5 6.41015 6.410149 3.5 10 3.5 Z"/>
    <path id="path2" fill="none" stroke="#efefef" stroke-linecap="round" stroke-linejoin="round" d="M 10 7.12624 C 11.587123 7.12624 12.87374 8.412857 12.87374 9.99998 C 12.87374 11.587103 11.587123 12.87372 10 12.87372 C 8.412877 12.87372 7.12626 11.587103 7.12626 9.99998 C 7.12626 8.412857 8.412877 7.12624 10 7.12624 Z"/>
    <path id="path3" fill="#efefef" stroke="none" d="M 3.19603 8.85284 C 3.14157 8.84365 3.0899 8.88038 3.08149 8.93497 C 2.83939 10.5076 3.14021 12.1169 3.93608 13.497 C 4.73196 14.8771 5.97422 15.9435 7.45661 16.521601 C 7.50807 16.5417 7.56574 16.515301 7.58507 16.4636 L 8.75146 13.3417 C 8.77079 13.29 8.74444 13.2325 8.69329 13.2117 C 7.9797 12.9214 7.38213 12.4012 6.99632 11.7322 C 6.61052 11.0632 6.45957 10.2854 6.5657 9.52238 C 6.5733 9.46768 6.53675 9.41609 6.48229 9.40691 L 3.19603 8.85284 Z"/>
    <path id="path4" fill="none" stroke="#efefef" stroke-linecap="round" stroke-linejoin="round" d="M 3.19603 8.85284 C 3.14157 8.84365 3.0899 8.88038 3.08149 8.93497 C 2.83939 10.5076 3.14021 12.1169 3.93608 13.497 C 4.73196 14.8771 5.97422 15.9435 7.45661 16.521601 C 7.50807 16.5417 7.56574 16.515301 7.58507 16.4636 L 8.75146 13.3417 C 8.77079 13.29 8.74444 13.2325 8.69329 13.2117 C 7.9797 12.9214 7.38213 12.4012 6.99632 11.7322 C 6.61052 11.0632 6.45957 10.2854 6.5657 9.52238 C 6.5733 9.46768 6.53675 9.41609 6.48229 9.40691 L 3.19603 8.85284 Z"/>
    <path id="path5" fill="none" stroke="#efefef" stroke-linecap="round" stroke-linejoin="round" d="M 12.9707 11.1939 L 16 12"/>
    <path id="path6" fill="none" stroke="#efefef" stroke-linecap="round" stroke-linejoin="round" d="M 10.5 7 L 11.0255 3.679541"/>
</svg>
