<svg width="56" height="56" viewBox="0 0 56 56" fill="none" xmlns="http://www.w3.org/2000/svg">
<g clip-path="url(#clip0_508_87)" filter="url(#filter0_d_508_87)">
<g clip-path="url(#clip1_508_87)">
<path d="M25.0013 20.0001V14.0001L30.0013 17.0001L35.0013 20.0001L30.0013 23.0001L25.0013 26.0001V20.0001Z" stroke="#EFEFEF" stroke-width="3.02083" stroke-linecap="round" stroke-linejoin="round"/>
<path d="M15.2733 32.7281C16.9428 34.4022 18.9267 35.7298 21.1111 36.6346C23.2954 37.5393 25.637 38.0034 28.0013 38.0001C37.9423 38.0001 46.0013 29.9411 46.0013 20.0001C46.0013 10.0591 37.9423 2.00008 28.0013 2.00008C23.0313 2.00008 18.5313 4.01508 15.2733 7.27208C13.6153 8.93008 10.0013 13.0001 10.0013 13.0001" stroke="#EFEFEF" stroke-width="3.02083" stroke-linecap="round" stroke-linejoin="round"/>
<path d="M10.0013 5.00008V13.0001H18.0013" stroke="#EFEFEF" stroke-width="3.02083" stroke-linecap="round" stroke-linejoin="round"/>
</g>
</g>
<defs>
<filter id="filter0_d_508_87" x="0" y="0" width="56" height="56" filterUnits="userSpaceOnUse" color-interpolation-filters="sRGB">
<feFlood flood-opacity="0" result="BackgroundImageFix"/>
<feColorMatrix in="SourceAlpha" type="matrix" values="0 0 0 0 0 0 0 0 0 0 0 0 0 0 0 0 0 0 127 0" result="hardAlpha"/>
<feOffset dy="8"/>
<feGaussianBlur stdDeviation="4"/>
<feComposite in2="hardAlpha" operator="out"/>
<feColorMatrix type="matrix" values="0 0 0 0 0 0 0 0 0 0 0 0 0 0 0 0 0 0 0.25 0"/>
<feBlend mode="normal" in2="BackgroundImageFix" result="effect1_dropShadow_508_87"/>
<feBlend mode="normal" in="SourceGraphic" in2="effect1_dropShadow_508_87" result="shape"/>
</filter>
<clipPath id="clip0_508_87">
<rect width="40" height="40" fill="white" transform="translate(8)"/>
</clipPath>
<clipPath id="clip1_508_87">
<rect width="40" height="40" fill="white" transform="translate(8)"/>
</clipPath>
</defs>
</svg>
