<svg width="28" height="28" viewBox="0 0 28 28" fill="none" xmlns="http://www.w3.org/2000/svg">
<g clip-path="url(#clip0_508_17)" filter="url(#filter0_d_508_17)">
<g clip-path="url(#clip1_508_17)">
<path d="M12.5007 10V7.00004L15.0007 8.50004L17.5007 10L15.0007 11.5L12.5007 13V10Z" stroke="#EFEFEF" stroke-width="1.51042" stroke-linecap="round" stroke-linejoin="round"/>
<path d="M7.63665 16.364C8.4714 17.2011 9.46337 17.8649 10.5555 18.3173C11.6477 18.7697 12.8185 19.0017 14.0007 19C18.9712 19 23.0007 14.9705 23.0007 10C23.0007 5.02954 18.9712 1.00004 14.0007 1.00004C11.5157 1.00004 9.26565 2.00754 7.63665 3.63604C6.80765 4.46504 5.00065 6.50004 5.00065 6.50004" stroke="#EFEFEF" stroke-width="1.51042" stroke-linecap="round" stroke-linejoin="round"/>
<path d="M5.00065 2.50004V6.50004H9.00065" stroke="#EFEFEF" stroke-width="1.51042" stroke-linecap="round" stroke-linejoin="round"/>
</g>
</g>
<defs>
<filter id="filter0_d_508_17" x="0" y="0" width="28" height="28" filterUnits="userSpaceOnUse" color-interpolation-filters="sRGB">
<feFlood flood-opacity="0" result="BackgroundImageFix"/>
<feColorMatrix in="SourceAlpha" type="matrix" values="0 0 0 0 0 0 0 0 0 0 0 0 0 0 0 0 0 0 127 0" result="hardAlpha"/>
<feOffset dy="4"/>
<feGaussianBlur stdDeviation="2"/>
<feComposite in2="hardAlpha" operator="out"/>
<feColorMatrix type="matrix" values="0 0 0 0 0 0 0 0 0 0 0 0 0 0 0 0 0 0 0.25 0"/>
<feBlend mode="normal" in2="BackgroundImageFix" result="effect1_dropShadow_508_17"/>
<feBlend mode="normal" in="SourceGraphic" in2="effect1_dropShadow_508_17" result="shape"/>
</filter>
<clipPath id="clip0_508_17">
<rect width="20" height="20" fill="white" transform="translate(4)"/>
</clipPath>
<clipPath id="clip1_508_17">
<rect width="20" height="20" fill="white" transform="translate(4)"/>
</clipPath>
</defs>
</svg>
