<svg width="40" height="40" viewBox="0 0 40 40" fill="none" xmlns="http://www.w3.org/2000/svg">
<g clip-path="url(#clip0_91_114)">
<path d="M14.0966 10.943C14.3113 10.1409 15.4496 10.1416 15.6633 10.9439L18.3069 20.8677C18.3816 21.1481 18.6004 21.3672 18.8808 21.4422L28.8016 24.0966C29.6037 24.3113 29.6031 25.4496 28.8008 25.6633L18.877 28.3069C18.5966 28.3816 18.3775 28.6004 18.3025 28.8808L15.648 38.8016C15.4334 39.6037 14.295 39.6031 14.0813 38.8008L11.4378 28.877C11.3631 28.5966 11.1442 28.3775 10.8639 28.3025L0.94301 25.648C0.140928 25.4334 0.141558 24.295 0.943876 24.0813L10.8676 21.4378C11.1481 21.3631 11.3672 21.1442 11.4422 20.8639L14.0966 10.943Z" fill="#EFEFEF"/>
<path d="M32.5008 7.81161C32.6623 7.15744 33.5923 7.15744 33.7538 7.81161L34.7906 12.0115C34.848 12.2442 35.0297 12.4259 35.2624 12.4833L39.4623 13.5201C40.1164 13.6816 40.1164 14.6116 39.4623 14.7731L35.2624 15.8099C35.0297 15.8673 34.848 16.049 34.7906 16.2817L33.7538 20.4816C33.5923 21.1358 32.6623 21.1358 32.5008 20.4816L31.464 16.2817C31.4065 16.049 31.2249 15.8673 30.9922 15.8099L26.7923 14.7731C26.1381 14.6116 26.1381 13.6816 26.7923 13.5201L30.9922 12.4833C31.2249 12.4259 31.4065 12.2442 31.464 12.0115L32.5008 7.81161Z" fill="#EFEFEF"/>
<path d="M21.5525 0.818328C21.6978 0.294468 22.4406 0.294468 22.5858 0.818329L23.5885 4.43436C23.6387 4.61574 23.7805 4.75747 23.9619 4.80776L27.5779 5.81038C28.1017 5.95564 28.1017 6.69845 27.5779 6.8437L23.9619 7.84633C23.7805 7.89662 23.6387 8.03835 23.5885 8.21973L22.5858 11.8358C22.4406 12.3596 21.6978 12.3596 21.5525 11.8358L20.5499 8.21973C20.4996 8.03835 20.3579 7.89662 20.1765 7.84633L16.5605 6.8437C16.0366 6.69845 16.0366 5.95564 16.5605 5.81038L20.1765 4.80776C20.3579 4.75747 20.4996 4.61574 20.5499 4.43436L21.5525 0.818328Z" fill="#EFEFEF"/>
</g>
<defs>
<clipPath id="clip0_91_114">
<rect width="40" height="40" fill="white"/>
</clipPath>
</defs>
</svg>
