<svg width="40" height="40" viewBox="0 0 40 40" fill="none" xmlns="http://www.w3.org/2000/svg">
<g clip-path="url(#clip0_57_58)">
<path d="M29.375 4.375C34.2715 7.62005 38.125 13.686 38.125 20C38.125 26.3143 34.2715 32.38 29.375 35.625" stroke="#EFEFEF" stroke-width="3.33333" stroke-linecap="round" stroke-linejoin="round"/>
<path d="M10.625 4.375C5.72863 7.62005 1.875 13.686 1.875 20C1.875 26.3143 5.72863 32.38 10.625 35.625" stroke="#EFEFEF" stroke-width="3.33333" stroke-linecap="round" stroke-linejoin="round"/>
<path d="M26.875 11.875C28.8055 13.7988 30.625 17.0595 30.625 20C30.625 22.9408 28.8055 26.2012 26.875 28.125" stroke="#EFEFEF" stroke-width="3.33333" stroke-linecap="round" stroke-linejoin="round"/>
<path d="M13.125 11.875C11.1946 13.7988 9.375 17.0595 9.375 20C9.375 22.9408 11.1946 26.2012 13.125 28.125" stroke="#EFEFEF" stroke-width="3.33333" stroke-linecap="round" stroke-linejoin="round"/>
<path d="M21.25 20C21.25 20.6903 20.6903 21.25 20 21.25C19.3097 21.25 18.75 20.6903 18.75 20C18.75 19.3097 19.3097 18.75 20 18.75C20.6903 18.75 21.25 19.3097 21.25 20Z" fill="#EFEFEF" stroke="#EFEFEF" stroke-width="3.33333" stroke-linecap="round" stroke-linejoin="round"/>
</g>
<defs>
<clipPath id="clip0_57_58">
<rect width="40" height="40" fill="white"/>
</clipPath>
</defs>
</svg>
