<svg width="20" height="20" viewBox="0 0 20 20" fill="none" xmlns="http://www.w3.org/2000/svg">
<g clip-path="url(#clip0_301_31)">
<g clip-path="url(#clip1_301_31)">
<path d="M4.17912 17.0149H9.85076M17.0149 8.65673V4.17912M14.9254 2.08957H4.17912M2.08957 4.17912V14.9254M0.895538 0.895538H3.88061V3.88061H0.895538V0.895538ZM0.895538 15.2239H3.88061V18.209H0.895538V15.2239ZM15.2239 0.895538H18.209V3.88061H15.2239V0.895538Z" stroke="#EFEFEF" stroke-width="1.79104" stroke-linecap="round" stroke-linejoin="round"/>
<g clip-path="url(#clip2_301_31)">
<path d="M14.1369 12.2077C14.202 12.0429 14.4353 12.043 14.5002 12.2079L15.2957 14.2282C15.3155 14.2785 15.3553 14.3183 15.4056 14.3382L17.425 15.1359C17.5898 15.201 17.5896 15.4343 17.4248 15.4992L15.4045 16.2947C15.3542 16.3145 15.3143 16.3543 15.2945 16.4046L14.4967 18.424C14.4317 18.5888 14.1984 18.5887 14.1335 18.4238L13.338 16.4035C13.3182 16.3532 13.2784 16.3134 13.2281 16.2935L11.2087 15.4958C11.0439 15.4307 11.044 15.1974 11.2089 15.1325L13.2291 14.337C13.2795 14.3172 13.3193 14.2774 13.3392 14.2271L14.1369 12.2077Z" fill="#EFEFEF"/>
<path d="M17.3143 10.7763C17.372 10.6486 17.5534 10.6486 17.6111 10.7763L18.0411 11.7283C18.0574 11.7645 18.0863 11.7934 18.1224 11.8097L19.0744 12.2397C19.2022 12.2974 19.2022 12.4788 19.0744 12.5365L18.1224 12.9664C18.0863 12.9827 18.0574 13.0117 18.0411 13.0478L17.6111 13.9998C17.5534 14.1276 17.372 14.1276 17.3143 13.9998L16.8843 13.0478C16.868 13.0117 16.8391 12.9827 16.803 12.9664L15.851 12.5365C15.7232 12.4788 15.7232 12.2974 15.851 12.2397L16.803 11.8097C16.8391 11.7934 16.868 11.7645 16.8843 11.7283L17.3143 10.7763Z" fill="#EFEFEF"/>
<path d="M18.8069 15.5524C18.8646 15.4247 19.046 15.4247 19.1036 15.5524L19.3479 16.0932C19.3642 16.1293 19.3931 16.1582 19.4292 16.1746L19.97 16.4188C20.0977 16.4765 20.0977 16.6579 19.97 16.7156L19.4292 16.9598C19.3931 16.9761 19.3642 17.005 19.3479 17.0412L19.1036 17.5819C19.046 17.7096 18.8646 17.7096 18.8069 17.5819L18.5626 17.0412C18.5463 17.005 18.5174 16.9761 18.4813 16.9598L17.9405 16.7156C17.8128 16.6579 17.8128 16.4765 17.9405 16.4188L18.4813 16.1746C18.5174 16.1582 18.5463 16.1293 18.5626 16.0932L18.8069 15.5524Z" fill="#EFEFEF"/>
</g>
</g>
</g>
<defs>
<clipPath id="clip0_301_31">
<rect width="20" height="20" fill="white"/>
</clipPath>
<clipPath id="clip1_301_31">
<rect width="20" height="19.7015" fill="white"/>
</clipPath>
<clipPath id="clip2_301_31">
<rect width="10.7463" height="9.25373" fill="white" transform="translate(9.25375 10.4478)"/>
</clipPath>
</defs>
</svg>
