<svg width="20" height="20" viewBox="0 0 20 20" fill="none" xmlns="http://www.w3.org/2000/svg">
<g clip-path="url(#clip0_57_26)">
<path d="M14.6875 2.1875C17.1358 3.81003 19.0625 6.84301 19.0625 10C19.0625 13.1571 17.1358 16.19 14.6875 17.8125" stroke="#EFEFEF" stroke-width="1.66667" stroke-linecap="round" stroke-linejoin="round"/>
<path d="M5.3125 2.1875C2.86431 3.81003 0.9375 6.84301 0.9375 10C0.9375 13.1571 2.86431 16.19 5.3125 17.8125" stroke="#EFEFEF" stroke-width="1.66667" stroke-linecap="round" stroke-linejoin="round"/>
<path d="M13.4375 5.9375C14.4028 6.89939 15.3125 8.52975 15.3125 10C15.3125 11.4704 14.4028 13.1006 13.4375 14.0625" stroke="#EFEFEF" stroke-width="1.66667" stroke-linecap="round" stroke-linejoin="round"/>
<path d="M6.5625 5.9375C5.5973 6.89939 4.6875 8.52975 4.6875 10C4.6875 11.4704 5.5973 13.1006 6.5625 14.0625" stroke="#EFEFEF" stroke-width="1.66667" stroke-linecap="round" stroke-linejoin="round"/>
<path d="M10.625 10C10.625 10.3451 10.3451 10.625 10 10.625C9.65487 10.625 9.375 10.3451 9.375 10C9.375 9.65487 9.65487 9.375 10 9.375C10.3451 9.375 10.625 9.65487 10.625 10Z" fill="#EFEFEF" stroke="#EFEFEF" stroke-width="1.66667" stroke-linecap="round" stroke-linejoin="round"/>
</g>
<defs>
<clipPath id="clip0_57_26">
<rect width="20" height="20" fill="white"/>
</clipPath>
</defs>
</svg>
