<svg width="40" height="40" viewBox="0 0 40 40" fill="none" xmlns="http://www.w3.org/2000/svg">
<g clip-path="url(#clip0_301_65)">
<g clip-path="url(#clip1_301_65)">
<path d="M8.35824 34.0299H19.7015M34.0299 17.3135V8.35824M29.8508 4.17914H8.35824M4.17914 8.35824V29.8508M1.79108 1.79108H7.76123V7.76123H1.79108V1.79108ZM1.79108 30.4478H7.76123V36.4179H1.79108V30.4478ZM30.4478 1.79108H36.4179V7.76123H30.4478V1.79108Z" stroke="#EFEFEF" stroke-width="3.58209" stroke-linecap="round" stroke-linejoin="round"/>
<g clip-path="url(#clip2_301_65)">
<path d="M28.2738 24.4154C28.404 24.0858 28.8705 24.0861 29.0003 24.4158L30.5913 28.4563C30.6309 28.557 30.7105 28.6367 30.8111 28.6764L34.8499 30.2719C35.1795 30.402 35.1792 30.8685 34.8495 30.9984L30.809 32.5894C30.7083 32.629 30.6286 32.7086 30.5889 32.8092L28.9934 36.848C28.8632 37.1776 28.3967 37.1773 28.2669 36.8476L26.6759 32.8071C26.6363 32.7064 26.5567 32.6267 26.4561 32.587L22.4173 30.9915C22.0877 30.8613 22.088 30.3948 22.4177 30.265L26.4582 28.674C26.5589 28.6344 26.6386 28.5548 26.6783 28.4542L28.2738 24.4154Z" fill="#EFEFEF"/>
<path d="M34.6286 21.5526C34.7439 21.2972 35.1067 21.2972 35.2221 21.5526L36.0821 23.4567C36.1147 23.5289 36.1726 23.5868 36.2448 23.6194L38.1488 24.4794C38.4043 24.5947 38.4043 24.9575 38.1488 25.0729L36.2448 25.9329C36.1726 25.9655 36.1147 26.0234 36.0821 26.0956L35.2221 27.9996C35.1067 28.2551 34.7439 28.2551 34.6286 27.9996L33.7686 26.0956C33.736 26.0234 33.6781 25.9655 33.6059 25.9329L31.7018 25.0729C31.4464 24.9575 31.4464 24.5947 31.7018 24.4794L33.6059 23.6194C33.6781 23.5868 33.736 23.5289 33.7686 23.4567L34.6286 21.5526Z" fill="#EFEFEF"/>
<path d="M37.6137 31.1049C37.729 30.8494 38.0918 30.8494 38.2072 31.1049L38.6957 32.1864C38.7283 32.2586 38.7862 32.3165 38.8584 32.3491L39.9399 32.8376C40.1954 32.9529 40.1954 33.3157 39.9399 33.4311L38.8584 33.9196C38.7862 33.9522 38.7283 34.0101 38.6957 34.0823L38.2072 35.1638C38.0918 35.4193 37.729 35.4193 37.6137 35.1638L37.1252 34.0823C37.0926 34.0101 37.0347 33.9522 36.9625 33.9196L35.881 33.4311C35.6255 33.3157 35.6255 32.9529 35.881 32.8376L36.9625 32.3491C37.0347 32.3165 37.0926 32.2586 37.1252 32.1864L37.6137 31.1049Z" fill="#EFEFEF"/>
</g>
</g>
</g>
<defs>
<clipPath id="clip0_301_65">
<rect width="40" height="40" fill="white"/>
</clipPath>
<clipPath id="clip1_301_65">
<rect width="40" height="39.403" fill="white"/>
</clipPath>
<clipPath id="clip2_301_65">
<rect width="21.4925" height="18.5075" fill="white" transform="translate(18.5075 20.8955)"/>
</clipPath>
</defs>
</svg>
