<svg width="20" height="20" viewBox="0 0 20 20" fill="none" xmlns="http://www.w3.org/2000/svg">
<g clip-path="url(#clip0_513_114)">
<path d="M7.50033 2.00033C7.96041 2.0005 8.33333 2.37321 8.33333 2.83333V7.00033C8.33316 7.46031 7.96031 7.83316 7.50033 7.83333H3.33333C2.8732 7.83333 2.5005 7.46041 2.50033 7.00033V2.83333C2.50033 2.3731 2.8731 2.00033 3.33333 2.00033H7.50033Z" stroke="#EFEFEF" stroke-width="1.66667" stroke-linejoin="round"/>
<path d="M15 2L11.6667 7.83333H18.3333L15 2Z" stroke="#EFEFEF" stroke-width="1.66667" stroke-linejoin="round"/>
<rect x="11.376" y="11.1667" width="6.66667" height="6.66667" rx="3.33333" stroke="#EFEFEF" stroke-width="1.66667"/>
<path d="M5 11.1667V17.8333M1.66667 14.5H8.33333" stroke="#EFEFEF" stroke-width="1.66667" stroke-linecap="round"/>
<path d="M7.50033 2.00033C7.96041 2.0005 8.33333 2.37321 8.33333 2.83333V7.00033C8.33316 7.46031 7.96031 7.83316 7.50033 7.83333H3.33333C2.8732 7.83333 2.5005 7.46041 2.50033 7.00033V2.83333C2.50033 2.3731 2.8731 2.00033 3.33333 2.00033H7.50033Z" stroke="#EFEFEF" stroke-width="1.66667" stroke-linejoin="round"/>
<path d="M15 2L11.6667 7.83333H18.3333L15 2Z" stroke="#EFEFEF" stroke-width="1.33333" stroke-linejoin="round"/>
<rect x="11.376" y="11.1667" width="6.66667" height="6.66667" rx="3.33333" stroke="#EFEFEF" stroke-width="1.66667"/>
<path d="M5 11.1667V17.8333M1.66667 14.5H8.33333" stroke="#EFEFEF" stroke-width="1.66667" stroke-linecap="round"/>
</g>
<defs>
<clipPath id="clip0_513_114">
<rect width="20" height="20" fill="white"/>
</clipPath>
</defs>
</svg>
