<svg width="28" height="28" viewBox="0 0 28 28" fill="none" xmlns="http://www.w3.org/2000/svg">
<g clip-path="url(#clip0_501_82)" filter="url(#filter0_d_501_82)">
<mask id="path-1-inside-1_501_82" fill="white">
<path d="M4 9C4 8.44772 4.44772 8 5 8H22C23.1046 8 24 8.89543 24 10V17C24 18.6569 22.6569 20 21 20H7C5.34315 20 4 18.6569 4 17V9Z"/>
</mask>
<path d="M4 9C4 8.44772 4.44772 8 5 8H22C23.1046 8 24 8.89543 24 10V17C24 18.6569 22.6569 20 21 20H7C5.34315 20 4 18.6569 4 17V9Z" stroke="#EFEFEF" stroke-width="3" mask="url(#path-1-inside-1_501_82)"/>
<path d="M4.74818 5.15222C4.74818 4.5257 5.20929 3.97933 5.82754 3.87328L22.9576 0.935077C23.1073 0.909401 23.2405 1.02157 23.2405 1.17326L23.2405 5.14245C23.2405 5.26872 23.1469 5.37854 23.0222 5.39865L4.74818 8.34561L4.74818 5.15222Z" stroke="#EFEFEF" stroke-width="1.5"/>
<path d="M19 6V1" stroke="#EFEFEF" stroke-width="1.6"/>
<path d="M14 7V2" stroke="#EFEFEF" stroke-width="1.6"/>
<path d="M9 8V3" stroke="#EFEFEF" stroke-width="1.6"/>
<path d="M10.0775 16.0773C9.65966 16.0773 9.29407 15.9941 8.98071 15.8277C8.67122 15.6575 8.42942 15.4196 8.25533 15.114C8.08511 14.8083 8 14.4524 8 14.0462C8 13.6284 8.08898 13.2589 8.26694 12.9378C8.44877 12.6167 8.69636 12.3653 9.00972 12.1834C9.32696 11.9977 9.69061 11.9049 10.1007 11.9049C10.4963 11.9049 10.8178 11.9717 11.0652 12.1053C11.1338 12.1424 11.1659 12.221 11.1529 12.2978L11.0621 12.8322C11.0398 12.9635 10.8971 13.0364 10.7685 13.0022C10.734 12.993 10.699 12.9851 10.6636 12.9784C10.5437 12.9514 10.4295 12.9378 10.3212 12.9378C10.004 12.9378 9.75444 13.0326 9.57262 13.2222C9.39079 13.4117 9.29988 13.6748 9.29988 14.0114C9.29988 14.3286 9.38692 14.5781 9.56101 14.76C9.73897 14.9379 9.98463 15.0269 10.298 15.0269C10.4218 15.0269 10.534 15.0153 10.6346 14.9921C10.6803 14.9819 10.7304 14.9681 10.7849 14.9505C10.9064 14.9115 11.0386 14.9831 11.0609 15.1087L11.1558 15.6443C11.1704 15.7266 11.1325 15.8102 11.0579 15.8479C10.755 16.0008 10.4283 16.0773 10.0775 16.0773Z" fill="#EFEFEF"/>
<path d="M11.7968 15.9844C11.6864 15.9844 11.5968 15.8949 11.5968 15.7844V12.1919C11.5968 12.0815 11.6864 11.9919 11.7968 11.9919H12.6503C12.7607 11.9919 12.8503 12.0815 12.8503 12.1919V14.8675C12.8503 14.978 12.9398 15.0675 13.0503 15.0675H14.0532C14.1686 15.0675 14.26 15.165 14.2528 15.2802L14.22 15.797C14.2134 15.9024 14.126 15.9844 14.0204 15.9844H11.7968Z" fill="#EFEFEF"/>
<path d="M14.908 15.9844C14.7976 15.9844 14.708 15.8949 14.708 15.7844V12.1919C14.708 12.0815 14.7976 11.9919 14.908 11.9919H15.8195C15.93 11.9919 16.0195 12.0815 16.0195 12.1919V15.7844C16.0195 15.8949 15.93 15.9844 15.8195 15.9844H14.908Z" fill="#EFEFEF"/>
<path d="M16.8575 15.9844C16.747 15.9844 16.6575 15.8949 16.6575 15.7844V12.1861C16.6575 12.0757 16.747 11.9861 16.8575 11.9861H18.0096C18.6672 11.9861 19.1624 12.0945 19.4951 12.3111C19.8317 12.5239 20 12.8392 20 13.257C20 13.5471 19.9265 13.7947 19.7795 13.9998C19.6363 14.201 19.4332 14.3557 19.1702 14.464C18.9071 14.5685 18.5976 14.6207 18.2417 14.6207H18.1399C18.0295 14.6207 17.9399 14.7102 17.9399 14.8207V15.7844C17.9399 15.8949 17.8504 15.9844 17.7399 15.9844H16.8575ZM18.1895 13.8141C18.3945 13.8141 18.5531 13.7715 18.6653 13.6864C18.7775 13.6013 18.8336 13.4736 18.8336 13.3034C18.8336 13.1448 18.7794 13.0268 18.6711 12.9494C18.5628 12.8682 18.4061 12.8276 18.2011 12.8276H18.1399C18.0295 12.8276 17.9399 12.9171 17.9399 13.0276V13.6141C17.9399 13.7245 18.0295 13.8141 18.1399 13.8141H18.1895Z" fill="#EFEFEF"/>
</g>
<defs>
<filter id="filter0_d_501_82" x="0" y="0" width="28" height="28" filterUnits="userSpaceOnUse" color-interpolation-filters="sRGB">
<feFlood flood-opacity="0" result="BackgroundImageFix"/>
<feColorMatrix in="SourceAlpha" type="matrix" values="0 0 0 0 0 0 0 0 0 0 0 0 0 0 0 0 0 0 127 0" result="hardAlpha"/>
<feOffset dy="4"/>
<feGaussianBlur stdDeviation="2"/>
<feComposite in2="hardAlpha" operator="out"/>
<feColorMatrix type="matrix" values="0 0 0 0 0 0 0 0 0 0 0 0 0 0 0 0 0 0 0.25 0"/>
<feBlend mode="normal" in2="BackgroundImageFix" result="effect1_dropShadow_501_82"/>
<feBlend mode="normal" in="SourceGraphic" in2="effect1_dropShadow_501_82" result="shape"/>
</filter>
<clipPath id="clip0_501_82">
<rect width="20" height="20" fill="white" transform="translate(4)"/>
</clipPath>
</defs>
</svg>
