<svg width="56" height="56" viewBox="0 0 56 56" fill="none" xmlns="http://www.w3.org/2000/svg">
<g clip-path="url(#clip0_501_102)" filter="url(#filter0_d_501_102)">
<mask id="path-1-inside-1_501_102" fill="white">
<path d="M8 18C8 16.8954 8.89543 16 10 16H44C46.2091 16 48 17.7909 48 20V34C48 37.3137 45.3137 40 42 40H14C10.6863 40 8 37.3137 8 34V18Z"/>
</mask>
<path d="M8 18C8 16.8954 8.89543 16 10 16H44C46.2091 16 48 17.7909 48 20V34C48 37.3137 45.3137 40 42 40H14C10.6863 40 8 37.3137 8 34V18Z" stroke="#EFEFEF" stroke-width="6" mask="url(#path-1-inside-1_501_102)"/>
<path d="M9.49636 10.3044C9.49636 9.05139 10.4186 7.95866 11.6551 7.74657L45.9151 1.87015C46.2145 1.8188 46.481 2.04314 46.481 2.34652L46.481 10.2849C46.481 10.5374 46.2938 10.7571 46.0443 10.7973L9.49637 16.6912L9.49636 10.3044Z" stroke="#EFEFEF" stroke-width="3"/>
<path d="M38 12V2" stroke="#EFEFEF" stroke-width="3.2"/>
<path d="M28 14V4" stroke="#EFEFEF" stroke-width="3.2"/>
<path d="M18 16V6" stroke="#EFEFEF" stroke-width="3.2"/>
<path d="M20.155 32.1545C19.3193 32.1545 18.5881 31.9882 17.9614 31.6555C17.3424 31.315 16.8588 30.8392 16.5107 30.2279C16.1702 29.6167 16 28.9048 16 28.0924C16 27.2568 16.178 26.5179 16.5339 25.8757C16.8975 25.2335 17.3927 24.7305 18.0194 24.3669C18.6539 23.9955 19.3812 23.8098 20.2014 23.8098C20.9627 23.8098 21.5868 23.9335 22.0738 24.181C22.2475 24.2693 22.3276 24.4666 22.295 24.6587L22.1465 25.5333C22.0908 25.8615 21.733 26.0437 21.4077 25.9732C21.381 25.9674 21.3541 25.962 21.3272 25.9569C21.0873 25.9027 20.8591 25.8757 20.6424 25.8757C20.0079 25.8757 19.5089 26.0652 19.1452 26.4444C18.7816 26.8235 18.5998 27.3496 18.5998 28.0228C18.5998 28.6572 18.7738 29.1563 19.122 29.52C19.4779 29.8759 19.9693 30.0538 20.596 30.0538C20.8436 30.0538 21.068 30.0306 21.2691 29.9842C21.3263 29.9715 21.387 29.9559 21.4512 29.9373C21.7576 29.8489 22.0877 30.0256 22.1434 30.3396L22.2994 31.22C22.3359 31.4259 22.2415 31.6354 22.0533 31.7267C21.4653 32.0119 20.8325 32.1545 20.155 32.1545Z" fill="#EFEFEF"/>
<path d="M23.6937 31.9688C23.4175 31.9688 23.1937 31.745 23.1937 31.4688V24.4839C23.1937 24.2077 23.4175 23.9839 23.6937 23.9839H25.2006C25.4767 23.9839 25.7006 24.2077 25.7006 24.4839V29.6351C25.7006 29.9112 25.9244 30.1351 26.2006 30.1351H27.9998C28.2883 30.1351 28.517 30.3787 28.4988 30.6667L28.446 31.5004C28.4293 31.7638 28.2109 31.9688 27.947 31.9688H23.6937Z" fill="#EFEFEF"/>
<path d="M29.916 31.9688C29.6399 31.9688 29.416 31.745 29.416 31.4688V24.4839C29.416 24.2077 29.6399 23.9839 29.916 23.9839H31.539C31.8151 23.9839 32.039 24.2077 32.039 24.4839V31.4688C32.039 31.745 31.8151 31.9688 31.539 31.9688H29.916Z" fill="#EFEFEF"/>
<path d="M33.8149 31.9688C33.5388 31.9688 33.3149 31.745 33.3149 31.4688V24.4723C33.3149 24.1961 33.5388 23.9723 33.8149 23.9723H36.0191C37.3345 23.9723 38.3249 24.1889 38.9903 24.6222C39.6634 25.0478 40 25.6784 40 26.514C40 27.0943 39.853 27.5895 39.559 27.9996C39.2727 28.4019 38.8665 28.7114 38.3403 28.928C37.8142 29.137 37.1952 29.2414 36.4834 29.2414H36.3799C36.1037 29.2414 35.8799 29.4653 35.8799 29.7414V31.4688C35.8799 31.745 35.656 31.9688 35.3799 31.9688H33.8149ZM36.3789 27.6282C36.789 27.6282 37.1062 27.5431 37.3306 27.3728C37.555 27.2026 37.6672 26.9473 37.6672 26.6068C37.6672 26.2896 37.5589 26.0536 37.3422 25.8989C37.1256 25.7364 36.8122 25.6551 36.4021 25.6551H36.3799C36.1037 25.6551 35.8799 25.879 35.8799 26.1551V27.1291C35.8799 27.4047 36.1033 27.6282 36.3789 27.6282Z" fill="#EFEFEF"/>
</g>
<defs>
<filter id="filter0_d_501_102" x="0" y="0" width="56" height="56" filterUnits="userSpaceOnUse" color-interpolation-filters="sRGB">
<feFlood flood-opacity="0" result="BackgroundImageFix"/>
<feColorMatrix in="SourceAlpha" type="matrix" values="0 0 0 0 0 0 0 0 0 0 0 0 0 0 0 0 0 0 127 0" result="hardAlpha"/>
<feOffset dy="8"/>
<feGaussianBlur stdDeviation="4"/>
<feComposite in2="hardAlpha" operator="out"/>
<feColorMatrix type="matrix" values="0 0 0 0 0 0 0 0 0 0 0 0 0 0 0 0 0 0 0.25 0"/>
<feBlend mode="normal" in2="BackgroundImageFix" result="effect1_dropShadow_501_102"/>
<feBlend mode="normal" in="SourceGraphic" in2="effect1_dropShadow_501_102" result="shape"/>
</filter>
<clipPath id="clip0_501_102">
<rect width="40" height="40" fill="white" transform="translate(8)"/>
</clipPath>
</defs>
</svg>
