<svg width="40" height="40" viewBox="0 0 40 40" fill="none" xmlns="http://www.w3.org/2000/svg">
<g clip-path="url(#clip0_90_96)">
<path d="M6.35142 1.5691L6.36344 1.56923L6.37547 1.56917L19.7414 1.5H19.7453H29.1698H33C36.0376 1.5 38.5 3.96244 38.5 7V9.34709V33C38.5 36.0376 36.0376 38.5 33 38.5H7C3.96244 38.5 1.5 36.0376 1.5 33L1.5 9.34709L1.5 6.36809C1.5 3.69714 3.68062 1.54008 6.35142 1.5691Z" stroke="#EFEFEF" stroke-width="3"/>
<path d="M19.6013 24.5192C18.6284 25.9403 17.2228 27.0095 15.5936 27.5679C13.9644 28.1263 12.1985 28.1439 10.5585 27.6183C8.9184 27.0927 7.49174 26.0519 6.49058 24.6505C5.48942 23.2492 4.96721 21.5622 5.00159 19.8403C5.03598 18.1184 5.62511 16.4536 6.68142 15.0933C7.73772 13.7331 9.20479 12.75 10.8645 12.2903C12.5243 11.8306 14.2881 11.9187 15.8937 12.5417C17.4993 13.1646 18.861 14.2891 19.7764 15.7479L13 20L19.6013 24.5192Z" fill="#EFEFEF"/>
<circle cx="23" cy="20" r="2" fill="#EFEFEF"/>
<circle cx="28" cy="20" r="2" fill="#EFEFEF"/>
<circle cx="33" cy="20" r="2" fill="#EFEFEF"/>
</g>
<defs>
<clipPath id="clip0_90_96">
<rect width="40" height="40" fill="white"/>
</clipPath>
</defs>
</svg>
