<svg width="56" height="56" viewBox="0 0 56 56" fill="none" xmlns="http://www.w3.org/2000/svg">
<g clip-path="url(#clip0_322_2650)">
<rect x="1.5" y="1.5" width="53" height="53" rx="12.5" stroke="#DFDFDF" stroke-width="3"/>
<path fill-rule="evenodd" clip-rule="evenodd" d="M41.0357 34.1135C40.1116 34.1135 39.2553 33.7751 38.5053 33.3331C37.7554 32.8778 37.1594 32.255 36.7175 31.4648C36.289 30.6746 36.0747 29.7705 36.0747 28.7527C36.0747 27.7348 36.289 26.8441 36.7175 26.0807C37.1594 25.3173 37.7554 24.7213 38.5053 24.2927C39.2553 23.8508 40.0923 23.6196 41.0163 23.6196C41.6725 23.6196 42.302 23.8106 42.9046 24.1722C43.3087 24.4006 43.6044 24.723 43.8604 25.1415C43.9604 25.3051 44.2404 25.2407 44.2404 25.0489V20.7432C44.2404 20.6588 44.3024 20.5872 44.3859 20.575L48.3146 20.0018C48.4172 19.9868 48.5091 20.0664 48.5091 20.17V33.9435C48.5091 34.0374 48.433 34.1135 48.3391 34.1135H44.4808C44.3869 34.1135 44.3107 34.0374 44.3107 33.9435V33.3294C44.3107 33.0702 43.9708 32.958 43.7978 33.151C43.581 33.393 43.337 33.618 43.0809 33.7578C42.52 34.0637 41.8392 34.1135 41.0357 34.1135ZM42.322 30.8219C42.8711 30.8219 43.3398 30.6277 43.7282 30.2393C44.1166 29.8375 44.3107 29.3487 44.3107 28.7728C44.3107 28.1968 44.1166 27.7281 43.7282 27.3665C43.3398 26.9915 42.8711 26.804 42.322 26.804C41.7462 26.804 41.2641 26.9982 40.8757 27.3866C40.4873 27.775 40.2932 28.2504 40.2932 28.8129C40.2932 29.3754 40.4873 29.8509 40.8757 30.2393C41.2641 30.6277 41.7462 30.8219 42.322 30.8219Z" fill="#DFDFDF"/>
<path d="M21.5581 24.9615C20.5843 24.0759 19.3941 23.6196 18.0046 23.6196C16.0282 23.6196 15.4904 24.0891 14.9649 24.5478C14.9148 24.5916 14.8649 24.6352 14.8138 24.6783C14.7248 24.7533 14.5941 24.7411 14.5138 24.6569C14.0185 24.1372 13.3656 23.6196 11.8245 23.6196C10.2357 23.6196 9.58395 24.1201 9.37229 24.2826L9.36807 24.2859C9.32077 24.3222 9.29015 24.2977 9.29015 24.238V23.8446C9.29015 23.7204 9.18947 23.6196 9.06527 23.6196H6.22488C6.10068 23.6196 6 23.7203 6 23.8445V33.8886C6 34.0128 6.10068 34.1135 6.22488 34.1135H10.3102C10.4344 34.1135 10.5351 34.0128 10.5351 33.8886V28.8221C10.5351 28.8153 10.535 28.8069 10.5349 28.7973C10.5327 28.555 10.5226 27.4598 11.5111 27.4598C12.4999 27.4598 12.4935 28.4824 12.4915 28.7891C12.4915 28.8013 12.4914 28.8123 12.4914 28.8221V33.8886C12.4914 34.0128 12.5921 34.1135 12.7163 34.1135H16.5348C16.659 34.1135 16.7597 34.0128 16.7597 33.8886V28.8306C16.7597 28.8174 16.7594 28.8011 16.7591 28.7822C16.754 28.4738 16.7373 27.4598 17.679 27.4598C18.6323 27.4598 18.6243 28.4473 18.6215 28.7862L18.6214 28.8074C18.6213 28.8123 18.6213 28.817 18.6213 28.8215C18.6213 28.8246 18.6213 28.8276 18.6213 28.8306V33.8897C18.6213 34.0139 18.7219 34.1135 18.8461 34.1135H22.7594C22.8836 34.1135 22.9843 34.0128 22.9843 33.8886V28.1318C22.9843 26.892 22.5318 25.8372 21.5581 24.9615Z" fill="#DFDFDF"/>
<path fill-rule="evenodd" clip-rule="evenodd" d="M27.7231 34.1135C26.6093 34.1135 25.6162 33.8898 24.7438 33.4424C24.3022 33.2053 23.9102 32.9253 23.568 32.6022C23.5346 32.5707 23.5161 32.5267 23.516 32.4808L23.5119 28.7007C23.5539 27.4154 23.3418 26.5248 23.0191 25.8929C22.9891 25.8341 22.9932 25.7633 23.0331 25.7108C23.4922 25.1071 24.0692 24.6269 24.764 24.2704C25.6094 23.8365 26.5489 23.6196 27.5822 23.6196C28.5753 23.6196 29.4208 23.8433 30.1186 24.2907C30.8299 24.7246 31.36 25.3211 31.7089 26.0804C32.0578 26.8261 32.2323 27.6667 32.2323 28.6022C32.2323 28.774 32.2256 28.9122 32.2123 29.0168C32.2035 29.0862 32.1464 29.1369 32.077 29.146L26.3584 29.8971C26.2521 29.9111 26.1847 30.0191 26.2273 30.1175C26.39 30.4937 26.6269 30.775 26.938 30.9613C27.3004 31.1646 27.7768 31.2663 28.3673 31.2663C29.2227 31.2663 30.143 31.0578 31.1282 30.6409C31.2296 30.5979 31.3457 30.6589 31.3657 30.7672L31.8054 33.148C31.8196 33.2252 31.7792 33.3024 31.707 33.3333C30.492 33.8534 29.1641 34.1135 27.7231 34.1135ZM29.0642 27.1933C28.8267 26.4514 28.3327 26.0804 27.5822 26.0804C27.0991 26.0804 26.7166 26.2634 26.4348 26.6295C26.1887 26.9491 26.0449 27.3515 26.0035 27.8365C25.9941 27.9465 26.0959 28.03 26.2037 28.0062L28.9414 27.3995C29.0349 27.3787 29.0934 27.2845 29.0642 27.1933Z" fill="#DFDFDF"/>
<path d="M37.6639 33.3918C37.7656 33.4744 37.7471 33.6371 37.6248 33.6839C36.8777 33.9703 36.0631 34.1135 35.1809 34.1135C34.044 34.1135 33.1613 33.7601 32.5327 33.0533C32.4453 32.951 32.3641 32.8434 32.2891 32.7306C32.2767 32.712 32.2684 32.691 32.2643 32.6691L31.7603 29.9673C31.7426 29.8722 31.8077 29.7814 31.9035 29.7678L32.4956 29.6837C32.5666 29.6737 32.6235 29.6201 32.6394 29.5501C32.6511 29.4984 32.6651 29.4402 32.6769 29.4001C32.7031 29.3112 32.7612 28.8604 32.7612 28.6139C32.7612 27.6138 32.5725 26.6946 32.1822 25.8681C32.033 25.547 31.8541 25.2509 31.6461 24.9804C31.6228 24.95 31.6099 24.913 31.6099 24.8747V20.9116C31.6099 20.8299 31.668 20.7597 31.7484 20.7446L35.6414 20.0114C35.7461 19.9917 35.8429 20.0719 35.8429 20.1784V26.6957C35.8429 26.7155 35.8394 26.7351 35.8328 26.7538C35.6041 27.3935 35.4905 28.0722 35.4905 28.7862C35.4905 29.7836 35.7298 30.7309 36.204 31.6201L36.205 31.622L36.206 31.6238C36.5825 32.318 37.0691 32.9088 37.6639 33.3918Z" fill="#DFDFDF"/>
</g>
<defs>
<clipPath id="clip0_322_2650">
<rect width="56" height="56" fill="white"/>
</clipPath>
</defs>
</svg>
