<svg width="28" height="28" viewBox="0 0 28 28" fill="none" xmlns="http://www.w3.org/2000/svg">
<g clip-path="url(#clip0_322_2646)">
<rect x="0.75" y="0.75" width="26.5" height="26.5" rx="6.25" stroke="#DFDFDF" stroke-width="1.5"/>
<path fill-rule="evenodd" clip-rule="evenodd" d="M20.5178 17.0568C20.0558 17.0568 19.6276 16.8876 19.2527 16.6666C18.8777 16.4389 18.5797 16.1275 18.3588 15.7324C18.1445 15.3373 18.0373 14.8853 18.0373 14.3763C18.0373 13.8674 18.1445 13.4221 18.3588 13.0404C18.5797 12.6587 18.8777 12.3607 19.2527 12.1464C19.6276 11.9254 20.0461 11.8098 20.5082 11.8098C20.8363 11.8098 21.151 11.9053 21.4523 12.0861C21.6543 12.2003 21.8022 12.3615 21.9302 12.5708C21.9802 12.6526 22.1202 12.6203 22.1202 12.5245V10.3716C22.1202 10.3294 22.1512 10.2936 22.1929 10.2875L24.1573 10.0009C24.2086 9.99342 24.2546 10.0332 24.2546 10.085V16.9717C24.2546 17.0187 24.2165 17.0568 24.1696 17.0568H22.2404C22.1934 17.0568 22.1554 17.0187 22.1554 16.9717V16.6647C22.1554 16.5351 21.9854 16.479 21.8989 16.5755C21.7905 16.6965 21.6685 16.809 21.5404 16.8789C21.26 17.0319 20.9196 17.0568 20.5178 17.0568ZM21.161 15.411C21.4356 15.411 21.6699 15.3139 21.8641 15.1197C22.0583 14.9188 22.1554 14.6743 22.1554 14.3864C22.1554 14.0984 22.0583 13.864 21.8641 13.6832C21.6699 13.4957 21.4356 13.402 21.161 13.402C20.8731 13.402 20.632 13.4991 20.4379 13.6933C20.2437 13.8875 20.1466 14.1252 20.1466 14.4065C20.1466 14.6877 20.2437 14.9255 20.4379 15.1197C20.632 15.3139 20.8731 15.411 21.161 15.411Z" fill="#DFDFDF"/>
<path d="M10.779 12.4807C10.2922 12.038 9.69706 11.8098 9.0023 11.8098C8.01411 11.8098 7.74518 12.0446 7.48245 12.2739C7.45741 12.2958 7.43243 12.3176 7.40689 12.3391C7.36242 12.3767 7.29704 12.3706 7.2569 12.3284C7.00924 12.0686 6.68281 11.8098 5.91223 11.8098C5.11785 11.8098 4.79197 12.06 4.68615 12.1413L4.68404 12.1429C4.66038 12.1611 4.64508 12.1488 4.64508 12.119V11.9223C4.64508 11.8602 4.59474 11.8098 4.53264 11.8098H3.11244C3.05034 11.8098 3 11.8601 3 11.9222V16.9443C3 17.0064 3.05034 17.0567 3.11244 17.0567H5.1551C5.2172 17.0567 5.26754 17.0064 5.26754 16.9443V14.411C5.26754 14.4076 5.2675 14.4035 5.26745 14.3986C5.26634 14.2775 5.26129 13.7299 5.75555 13.7299C6.24994 13.7299 6.24673 14.2412 6.24576 14.3946C6.24573 14.4006 6.24569 14.4061 6.24569 14.411V16.9443C6.24569 17.0064 6.29603 17.0567 6.35813 17.0567H8.2674C8.3295 17.0567 8.37984 17.0064 8.37984 16.9443V14.4153C8.37984 14.4087 8.37971 14.4005 8.37955 14.3911C8.37701 14.2369 8.36866 13.7299 8.83948 13.7299C9.31617 13.7299 9.31214 14.2237 9.31076 14.3931L9.31068 14.4037C9.31066 14.4061 9.31065 14.4085 9.31064 14.4108C9.31063 14.4123 9.31063 14.4138 9.31063 14.4153V16.9449C9.31063 17.007 9.36097 17.0567 9.42307 17.0567H11.3797C11.4418 17.0567 11.4921 17.0064 11.4921 16.9443V14.0659C11.4921 13.446 11.2659 12.9186 10.779 12.4807Z" fill="#DFDFDF"/>
<path fill-rule="evenodd" clip-rule="evenodd" d="M13.8616 17.0567C13.3046 17.0567 12.8081 16.9449 12.3719 16.7212C12.1511 16.6027 11.9551 16.4626 11.784 16.3011C11.7673 16.2854 11.758 16.2634 11.758 16.2404L11.7559 14.3504C11.7769 13.7077 11.6709 13.2624 11.5096 12.9464C11.4946 12.9171 11.4966 12.8816 11.5165 12.8554C11.7461 12.5535 12.0346 12.3135 12.382 12.1352C12.8047 11.9183 13.2744 11.8098 13.7911 11.8098C14.2877 11.8098 14.7104 11.9217 15.0593 12.1454C15.4149 12.3623 15.68 12.6606 15.8545 13.0402C16.0289 13.413 16.1161 13.8333 16.1161 14.3011C16.1161 14.387 16.1128 14.4561 16.1062 14.5084C16.1018 14.5431 16.0732 14.5685 16.0385 14.573L13.1792 14.9485C13.126 14.9555 13.0923 15.0095 13.1136 15.0588C13.195 15.2469 13.3134 15.3875 13.469 15.4806C13.6502 15.5823 13.8884 15.6332 14.1836 15.6332C14.6114 15.6332 15.0715 15.5289 15.5641 15.3204C15.6148 15.299 15.6728 15.3294 15.6828 15.3836L15.9027 16.574C15.9098 16.6126 15.8896 16.6512 15.8535 16.6666C15.246 16.9267 14.582 17.0567 13.8616 17.0567ZM14.5321 13.5967C14.4133 13.2257 14.1663 13.0402 13.7911 13.0402C13.5495 13.0402 13.3583 13.1317 13.2174 13.3147C13.0944 13.4746 13.0225 13.6757 13.0018 13.9183C12.9971 13.9732 13.048 14.015 13.1018 14.0031L14.4707 13.6997C14.5174 13.6894 14.5467 13.6423 14.5321 13.5967Z" fill="#DFDFDF"/>
<path d="M18.832 16.6959C18.8828 16.7372 18.8735 16.8185 18.8124 16.842C18.4389 16.9852 18.0315 17.0567 17.5904 17.0567C17.022 17.0567 16.5807 16.88 16.2663 16.5266C16.2226 16.4755 16.182 16.4217 16.1445 16.3653C16.1384 16.356 16.1342 16.3455 16.1322 16.3346L15.8802 14.9836C15.8713 14.9361 15.9039 14.8907 15.9518 14.8839L16.2478 14.8419C16.2833 14.8368 16.3117 14.81 16.3197 14.7751C16.3256 14.7492 16.3326 14.7201 16.3385 14.7001C16.3516 14.6556 16.3806 14.4302 16.3806 14.307C16.3806 13.8069 16.2863 13.3473 16.0911 12.9341C16.0165 12.7735 15.9271 12.6254 15.8231 12.4902C15.8114 12.475 15.8049 12.4565 15.8049 12.4374V10.4558C15.8049 10.4149 15.834 10.3799 15.8742 10.3723L17.8207 10.0057C17.8731 9.99583 17.9215 10.036 17.9215 10.0892V13.3478C17.9215 13.3577 17.9197 13.3676 17.9164 13.3769C17.802 13.6967 17.7453 14.0361 17.7453 14.3931C17.7453 14.8918 17.8649 15.3655 18.102 15.81L18.1025 15.811L18.103 15.8119C18.2912 16.159 18.5345 16.4544 18.832 16.6959Z" fill="#DFDFDF"/>
</g>
<defs>
<clipPath id="clip0_322_2646">
<rect width="28" height="28" fill="white"/>
</clipPath>
</defs>
</svg>
