<svg width="40" height="40" viewBox="0 0 40 40" fill="none" xmlns="http://www.w3.org/2000/svg">
<g clip-path="url(#clip0_67_98)">
<path d="M13.2748 9.51388C13.4487 8.702 14.6074 8.70264 14.7805 9.5147L16.7376 18.6977C16.8008 18.9945 17.0325 19.2264 17.3292 19.29L26.5101 21.2572C27.3219 21.4311 27.3213 22.5898 26.5092 22.7629L17.3263 24.72C17.0295 24.7832 16.7975 25.0149 16.7339 25.3116L14.7668 34.4925C14.5928 35.3043 13.4341 35.3037 13.261 34.4916L11.304 25.3086C11.2407 25.0119 11.009 24.7799 10.7123 24.7163L1.53149 22.7492C0.719608 22.5752 0.720243 21.4165 1.53231 21.2434L10.7153 19.2864C11.0121 19.2231 11.244 18.9914 11.3076 18.6947L13.2748 9.51388Z" fill="#EFEFEF"/>
<path d="M31.845 6.882C31.9668 6.26151 32.8544 6.26151 32.9762 6.882L33.6361 10.2448C33.6812 10.4746 33.8609 10.6543 34.0907 10.6994L37.4535 11.3593C38.074 11.4811 38.074 12.3687 37.4535 12.4905L34.0907 13.1504C33.8609 13.1955 33.6812 13.3752 33.6361 13.605L32.9762 16.9678C32.8544 17.5883 31.9668 17.5883 31.845 16.9678L31.1851 13.605C31.14 13.3752 30.9603 13.1955 30.7305 13.1504L27.3677 12.4905C26.7472 12.3687 26.7472 11.4811 27.3677 11.3593L30.7305 10.6994C30.9603 10.6543 31.14 10.4746 31.1851 10.2448L31.845 6.882Z" fill="#EFEFEF"/>
<path d="M20.4953 1.60126C20.6474 0.825912 21.7565 0.825911 21.9087 1.60126L22.2903 3.54565C22.3466 3.83282 22.5711 4.05733 22.8583 4.11368L24.8027 4.49526C25.578 4.64741 25.578 5.75654 24.8027 5.90869L22.8583 6.29026C22.5711 6.34662 22.3466 6.57113 22.2903 6.8583L21.9087 8.80269C21.7565 9.57804 20.6474 9.57804 20.4953 8.80269L20.1137 6.8583C20.0573 6.57113 19.8328 6.34662 19.5457 6.29026L17.6013 5.90869C16.8259 5.75654 16.8259 4.64741 17.6013 4.49526L19.5457 4.11368C19.8328 4.05733 20.0573 3.83282 20.1137 3.54565L20.4953 1.60126Z" fill="#EFEFEF"/>
</g>
<defs>
<clipPath id="clip0_67_98">
<rect width="40" height="40" fill="white"/>
</clipPath>
</defs>
</svg>
