<svg width="20" height="20" viewBox="0 0 20 20" fill="none" xmlns="http://www.w3.org/2000/svg">
<g clip-path="url(#clip0_67_89)">
<path d="M6.63739 4.75694C6.72437 4.351 7.30372 4.35132 7.39026 4.75735L8.36879 9.34885C8.40042 9.49724 8.51626 9.61321 8.66462 9.645L13.255 10.6286C13.661 10.7156 13.6607 11.2949 13.2546 11.3815L8.66313 12.36C8.51473 12.3916 8.39876 12.5075 8.36697 12.6558L7.38338 17.2462C7.2964 17.6522 6.71705 17.6519 6.63052 17.2458L5.65198 12.6543C5.62036 12.5059 5.50451 12.39 5.35616 12.3582L0.765743 11.3746C0.359804 11.2876 0.360122 10.7082 0.766156 10.6217L5.35765 9.64318C5.50604 9.61155 5.62201 9.49571 5.6538 9.34735L6.63739 4.75694Z" fill="#EFEFEF"/>
<path d="M15.9225 3.441C15.9834 3.13076 16.4272 3.13075 16.4881 3.441L16.8181 5.12241C16.8406 5.23732 16.9304 5.32716 17.0453 5.3497L18.7268 5.67967C19.037 5.74055 19.037 6.18436 18.7268 6.24524L17.0453 6.5752C16.9304 6.59775 16.8406 6.68759 16.8181 6.80249L16.4881 8.48391C16.4272 8.79415 15.9834 8.79415 15.9225 8.48391L15.5926 6.80249C15.57 6.68759 15.4802 6.59775 15.3653 6.5752L13.6839 6.24524C13.3736 6.18436 13.3736 5.74055 13.6839 5.67967L15.3653 5.3497C15.4802 5.32716 15.57 5.23732 15.5926 5.12241L15.9225 3.441Z" fill="#EFEFEF"/>
<path d="M10.2476 0.800629C10.3237 0.412956 10.8783 0.412956 10.9543 0.800629L11.1451 1.77283C11.1733 1.91641 11.2856 2.02867 11.4291 2.05684L12.4013 2.24763C12.789 2.32371 12.789 2.87827 12.4013 2.95435L11.4291 3.14513C11.2856 3.17331 11.1733 3.28557 11.1451 3.42915L10.9543 4.40135C10.8783 4.78902 10.3237 4.78902 10.2476 4.40135L10.0568 3.42915C10.0287 3.28557 9.91641 3.17331 9.77283 3.14513L8.80063 2.95435C8.41296 2.87827 8.41296 2.32371 8.80063 2.24763L9.77283 2.05684C9.91641 2.02867 10.0287 1.91641 10.0568 1.77283L10.2476 0.800629Z" fill="#EFEFEF"/>
</g>
<defs>
<clipPath id="clip0_67_89">
<rect width="20" height="20" fill="white"/>
</clipPath>
</defs>
</svg>
