<svg width="20" height="20" viewBox="0 0 20 20" fill="none" xmlns="http://www.w3.org/2000/svg">
<g clip-path="url(#clip0_90_103)">
<path d="M3.17571 0.784549L3.17571 0.784645L3.18774 0.784583L9.87069 0.75H9.87263H14.5849H16.5C18.0188 0.75 19.25 1.98122 19.25 3.5V4.67355V16.5C19.25 18.0188 18.0188 19.25 16.5 19.25H3.5C1.98122 19.25 0.750002 18.0188 0.750002 16.5L0.750002 4.67354L0.75 3.18405C0.75 1.84857 1.84031 0.770041 3.17571 0.784549Z" stroke="#EFEFEF" stroke-width="1.5"/>
<path d="M9.80063 12.2596C9.31419 12.9702 8.61142 13.5048 7.79682 13.7839C6.98222 14.0631 6.09927 14.072 5.27923 13.8092C4.4592 13.5464 3.74587 13.0259 3.24529 12.3253C2.74471 11.6246 2.48361 10.7811 2.5008 9.92014C2.51799 9.0592 2.81256 8.22679 3.34071 7.54666C3.86886 6.86653 4.6024 6.375 5.43227 6.14514C6.26214 5.91528 7.14403 5.95936 7.94684 6.27084C8.74965 6.58231 9.43051 7.14454 9.8882 7.87395L6.5 10L9.80063 12.2596Z" fill="#EFEFEF"/>
<circle cx="11.5" cy="10" r="1" fill="#EFEFEF"/>
<circle cx="14" cy="10" r="1" fill="#EFEFEF"/>
<circle cx="16.5" cy="10" r="1" fill="#EFEFEF"/>
</g>
<defs>
<clipPath id="clip0_90_103">
<rect width="20" height="20" fill="white"/>
</clipPath>
</defs>
</svg>
