<svg width="20" height="20" viewBox="0 0 20 20" fill="none" xmlns="http://www.w3.org/2000/svg">
<path d="M1 5.57143C1 4.15127 2.11157 3 3.48276 3H16.5172C17.8885 3 19 4.15127 19 5.57143V13.9286C19 15.3488 17.8885 16.5 16.5172 16.5H3.48276C2.11157 16.5 1 15.3488 1 13.9286V5.57143Z" stroke="#EFEFEF" stroke-width="0.9" stroke-linecap="round" stroke-linejoin="round"/>
<path d="M9.44925 11.7544C9.06617 12.314 8.51274 12.735 7.87124 12.9549C7.22974 13.1747 6.53442 13.1817 5.88864 12.9747C5.24287 12.7678 4.68112 12.3579 4.28691 11.8062C3.89271 11.2544 3.68709 10.5901 3.70063 9.91212C3.71416 9.23413 3.94614 8.5786 4.36206 8.043C4.77798 7.5074 5.35564 7.12032 6.00916 6.9393C6.66268 6.75829 7.35717 6.793 7.98938 7.03829C8.6216 7.28357 9.15778 7.72633 9.51821 8.30074L6.85 9.975L9.44925 11.7544Z" fill="#EFEFEF"/>
<circle cx="11.4891" cy="10.3759" r="0.572727" fill="#EFEFEF"/>
<circle cx="13.6655" cy="10.3759" r="0.572727" fill="#EFEFEF"/>
<circle cx="15.7273" cy="10.3759" r="0.572727" fill="#EFEFEF"/>
</svg>
