<svg width="40" height="40" viewBox="0 0 40 40" fill="none" xmlns="http://www.w3.org/2000/svg">
<path d="M2 11.1429C2 8.30253 4.22314 6 6.96552 6H33.0345C35.7769 6 38 8.30253 38 11.1429V27.8571C38 30.6975 35.7769 33 33.0345 33H6.96552C4.22314 33 2 30.6975 2 27.8571V11.1429Z" stroke="#EFEFEF" stroke-width="1.8" stroke-linecap="round" stroke-linejoin="round"/>
<path d="M18.8985 23.5089C18.1323 24.628 17.0255 25.47 15.7425 25.9097C14.4595 26.3494 13.0688 26.3634 11.7773 25.9494C10.4857 25.5355 9.36225 24.7159 8.57383 23.6123C7.78542 22.5087 7.37418 21.1802 7.40126 19.8242C7.42833 18.4682 7.89227 17.1572 8.72411 16.086C9.55595 15.0148 10.7113 14.2406 12.0183 13.8786C13.3254 13.5166 14.7143 13.586 15.9788 14.0766C17.2432 14.5671 18.3156 15.4527 19.0364 16.6015L13.7 19.95L18.8985 23.5089Z" fill="#EFEFEF"/>
<circle cx="22.9782" cy="20.7518" r="1.14545" fill="#EFEFEF"/>
<circle cx="27.3309" cy="20.7518" r="1.14545" fill="#EFEFEF"/>
<circle cx="31.4545" cy="20.7518" r="1.14545" fill="#EFEFEF"/>
</svg>
