<svg width="28" height="28" viewBox="0 0 28 28" fill="none" xmlns="http://www.w3.org/2000/svg">
<g clip-path="url(#clip0_91_52)">
<path d="M21.9052 17.02L24.923 15.1628L25 15.2658C24.0454 17.174 21.1316 19.702 19.6092 19.702C18.2428 19.702 17.3392 18.9802 17.598 17.9997L19.4033 10.8806C19.5582 10.3389 19.3514 10.1069 19.0935 10.1069C18.4998 10.1069 17.6231 10.7777 15.8178 14.801L14.8373 19.1342L10.633 19.7279L12.6451 10.8815C12.7481 10.3398 12.5932 10.1078 12.3353 10.1078C11.6906 10.1078 10.9679 10.7266 9.16265 14.75L8.05316 19.1342L3.87488 19.7279L6.32669 9.84995L3.07701 11.6552L3 11.5003C3.87398 10.1266 4.96646 8.93746 6.30519 8.00169C7.17201 7.39456 8.33881 7.29964 9.21996 7.88528C10.1199 8.48256 10.4718 9.53564 10.1701 10.6756L9.6283 12.8677C11.2796 8.92134 13.0589 7.37396 14.9161 7.37396C16.5154 7.37396 17.1601 8.79239 16.7213 10.7006L16.1796 13.1766C17.8819 9.02432 19.7642 7.37396 21.6993 7.37396C23.2726 7.37396 23.9944 8.79239 23.5046 10.7006L21.9052 17.02Z" fill="#DFDFDF"/>
<rect x="0.75" y="0.75" width="26.5" height="26.5" rx="6.25" stroke="#DFDFDF" stroke-width="1.5"/>
</g>
<defs>
<clipPath id="clip0_91_52">
<rect width="28" height="28" fill="white"/>
</clipPath>
</defs>
</svg>
