<svg width="56" height="56" viewBox="0 0 56 56" fill="none" xmlns="http://www.w3.org/2000/svg">
<g clip-path="url(#clip0_60_68)">
<path d="M43.8105 34.04L49.846 30.3256L50 30.5315C48.0909 34.348 42.2631 39.4039 39.2185 39.4039C36.4855 39.4039 34.6784 37.9604 35.196 35.9993L38.8066 21.7612C39.1164 20.6777 38.7027 20.2139 38.1869 20.2139C36.9995 20.2139 35.2462 21.5553 31.6356 29.602L29.6745 38.2684L21.266 39.4558L25.2903 21.763C25.4963 20.6795 25.1864 20.2157 24.6706 20.2157C23.3811 20.2157 21.9359 21.4532 18.3253 29.4999L16.1063 38.2684L7.74976 39.4558L12.6534 19.6999L6.15402 23.3104L6 23.0006C7.74796 20.2533 9.93292 17.8749 12.6104 16.0033C14.344 14.7891 16.6776 14.5992 18.4399 15.7705C20.2398 16.9651 20.9437 19.0712 20.3401 21.3511L19.2566 25.7354C22.5591 17.8427 26.1177 14.7479 29.8321 14.7479C33.0308 14.7479 34.3203 17.5848 33.4427 21.4013L32.3592 26.3532C35.7638 18.0486 39.5283 14.7479 43.3986 14.7479C46.5453 14.7479 47.9888 17.5848 47.0091 21.4013L43.8105 34.04Z" fill="#DFDFDF"/>
<rect x="1.5" y="1.5" width="53" height="53" rx="12.5" stroke="#DFDFDF" stroke-width="3"/>
</g>
<defs>
<clipPath id="clip0_60_68">
<rect width="56" height="56" fill="white"/>
</clipPath>
</defs>
</svg>
