<svg width="20" height="20" viewBox="0 0 20 20" fill="none" xmlns="http://www.w3.org/2000/svg">
<g clip-path="url(#clip0_91_118)">
<path d="M7.04832 5.47151C7.15563 5.07047 7.72481 5.07078 7.83167 5.47194L9.15344 10.4338C9.19079 10.574 9.30022 10.6836 9.44039 10.7211L14.4008 12.0483C14.8019 12.1556 14.8015 12.7248 14.4004 12.8317L9.4385 14.1534C9.29829 14.1908 9.18874 14.3002 9.15123 14.4404L7.824 19.4008C7.7167 19.8019 7.14752 19.8015 7.04065 19.4004L5.71888 14.4385C5.68154 14.2983 5.5721 14.1887 5.43194 14.1512L0.471505 12.824C0.0704641 12.7167 0.070779 12.1475 0.471938 12.0407L5.43382 10.7189C5.57403 10.6815 5.68359 10.5721 5.72109 10.4319L7.04832 5.47151Z" fill="#EFEFEF"/>
<path d="M16.2504 3.90581C16.3312 3.57872 16.7961 3.57872 16.8769 3.90581L17.3953 6.00575C17.424 6.1221 17.5149 6.21294 17.6312 6.24166L19.7311 6.76007C20.0582 6.84081 20.0582 7.3058 19.7311 7.38655L17.6312 7.90495C17.5149 7.93367 17.424 8.02452 17.3953 8.14086L16.8769 10.2408C16.7961 10.5679 16.3312 10.5679 16.2504 10.2408L15.732 8.14086C15.7033 8.02452 15.6124 7.93367 15.4961 7.90495L13.3962 7.38655C13.0691 7.3058 13.0691 6.84081 13.3962 6.76007L15.4961 6.24166C15.6124 6.21294 15.7033 6.1221 15.732 6.00575L16.2504 3.90581Z" fill="#EFEFEF"/>
<path d="M10.7762 0.409164C10.8489 0.147234 11.2203 0.147234 11.2929 0.409164L11.7942 2.21718C11.8194 2.30787 11.8902 2.37873 11.9809 2.40388L13.7889 2.90519C14.0509 2.97782 14.0509 3.34922 13.7889 3.42185L11.9809 3.92316C11.8902 3.94831 11.8194 4.01917 11.7942 4.10986L11.2929 5.91788C11.2203 6.17981 10.8489 6.17981 10.7762 5.91788L10.2749 4.10986C10.2498 4.01917 10.1789 3.94831 10.0882 3.92316L8.28022 3.42185C8.01829 3.34922 8.01829 2.97782 8.28022 2.90519L10.0882 2.40388C10.1789 2.37873 10.2498 2.30787 10.2749 2.21718L10.7762 0.409164Z" fill="#EFEFEF"/>
</g>
<defs>
<clipPath id="clip0_91_118">
<rect width="20" height="20" fill="white"/>
</clipPath>
</defs>
</svg>
