<svg width="20" height="20" viewBox="0 0 20 20" fill="none" xmlns="http://www.w3.org/2000/svg">
<rect x="0.720697" y="4.6" width="18.5586" height="10.8" rx="2.15862" stroke="#EFEFEF" stroke-width="1.2"/>
<path d="M7.23931 9.3652H5.85804C5.84824 9.25091 5.82212 9.14724 5.77967 9.05417C5.73885 8.96111 5.68171 8.88111 5.60824 8.81416C5.5364 8.74559 5.44905 8.69334 5.34619 8.65743C5.24333 8.61987 5.12659 8.6011 4.99597 8.6011C4.76739 8.6011 4.57392 8.65661 4.41554 8.76763C4.2588 8.87866 4.13962 9.03785 4.05798 9.2452C3.97798 9.45255 3.93798 9.70154 3.93798 9.99216C3.93798 10.2991 3.9788 10.5563 4.06043 10.7636C4.1437 10.9693 4.2637 11.1244 4.42044 11.2289C4.57718 11.3318 4.76576 11.3832 4.98618 11.3832C5.11189 11.3832 5.22455 11.3677 5.32415 11.3367C5.42374 11.304 5.51027 11.2575 5.58375 11.1971C5.65722 11.1367 5.71681 11.064 5.76253 10.9791C5.80988 10.8926 5.84171 10.7955 5.85804 10.6877L7.23931 10.6975C7.22298 10.9097 7.16339 11.1261 7.06053 11.3465C6.95767 11.5653 6.81154 11.7677 6.62215 11.9539C6.43439 12.1384 6.20172 12.2869 5.92416 12.3996C5.6466 12.5122 5.32415 12.5686 4.95679 12.5686C4.49636 12.5686 4.08329 12.4698 3.71756 12.2722C3.35347 12.0747 3.0653 11.7841 2.85304 11.4004C2.64242 11.0167 2.53712 10.5473 2.53712 9.99216C2.53712 9.43378 2.64487 8.96356 2.86039 8.5815C3.07591 8.19782 3.36653 7.90801 3.73226 7.71209C4.09798 7.51453 4.50616 7.41575 4.95679 7.41575C5.27353 7.41575 5.56497 7.45902 5.8311 7.54555C6.09723 7.63209 6.33071 7.75862 6.53153 7.92516C6.73235 8.09006 6.89399 8.29333 7.01645 8.53497C7.1389 8.77661 7.21319 9.05336 7.23931 9.3652ZM11.3081 7.48433H12.6698V10.6975C12.6698 11.0795 12.5783 11.4102 12.3955 11.6894C12.2143 11.9669 11.9612 12.1816 11.6363 12.3335C11.3114 12.4837 10.9342 12.5588 10.5048 12.5588C10.0721 12.5588 9.69336 12.4837 9.36845 12.3335C9.04354 12.1816 8.79047 11.9669 8.60924 11.6894C8.42964 11.4102 8.33984 11.0795 8.33984 10.6975V7.48433H9.70152V10.5799C9.70152 10.735 9.73581 10.8738 9.80438 10.9963C9.87296 11.1171 9.96765 11.2118 10.0885 11.2804C10.2109 11.3489 10.3497 11.3832 10.5048 11.3832C10.6616 11.3832 10.8003 11.3489 10.9212 11.2804C11.042 11.2118 11.1367 11.1171 11.2052 10.9963C11.2738 10.8738 11.3081 10.735 11.3081 10.5799V7.48433ZM13.7997 12.5V7.48433H17.4145V8.5815H15.1614V9.44357H17.2284V10.5408H15.1614V11.4028H17.4047V12.5H13.7997Z" fill="#EFEFEF"/>
</svg>
