<svg width="40" height="40" viewBox="0 0 40 40" fill="none" xmlns="http://www.w3.org/2000/svg">
<rect x="1.44139" y="9.2" width="37.1172" height="21.6" rx="4.31724" stroke="#EFEFEF" stroke-width="2.4"/>
<path d="M14.4786 18.7304H11.7161C11.6965 18.5018 11.6442 18.2945 11.5593 18.1083C11.4777 17.9222 11.3634 17.7622 11.2165 17.6283C11.0728 17.4912 10.8981 17.3867 10.6924 17.3149C10.4867 17.2397 10.2532 17.2022 9.99194 17.2022C9.53478 17.2022 9.14783 17.3132 8.83109 17.5353C8.51761 17.7573 8.27923 18.0757 8.11596 18.4904C7.95596 18.9051 7.87595 19.4031 7.87595 19.9843C7.87595 20.5982 7.95759 21.1125 8.12086 21.5272C8.2874 21.9387 8.5274 22.2489 8.84088 22.4579C9.15436 22.6636 9.53152 22.7665 9.97235 22.7665C10.2238 22.7665 10.4491 22.7354 10.6483 22.6734C10.8475 22.6081 11.0205 22.515 11.1675 22.3942C11.3144 22.2734 11.4336 22.1281 11.5251 21.9583C11.6198 21.7852 11.6834 21.5909 11.7161 21.3754L14.4786 21.395C14.446 21.8195 14.3268 22.2522 14.1211 22.693C13.9153 23.1306 13.6231 23.5355 13.2443 23.9077C12.8688 24.2767 12.4034 24.5739 11.8483 24.7992C11.2932 25.0245 10.6483 25.1371 9.91357 25.1371C8.99273 25.1371 8.16658 24.9396 7.43512 24.5445C6.70694 24.1494 6.13059 23.5681 5.70609 22.8007C5.28485 22.0334 5.07423 21.0946 5.07423 19.9843C5.07423 18.8676 5.28975 17.9271 5.72078 17.163C6.15182 16.3956 6.73306 15.816 7.46451 15.4242C8.19597 15.0291 9.01232 14.8315 9.91357 14.8315C10.5471 14.8315 11.1299 14.918 11.6622 15.0911C12.1945 15.2642 12.6614 15.5172 13.0631 15.8503C13.4647 16.1801 13.788 16.5867 14.0329 17.0699C14.2778 17.5532 14.4264 18.1067 14.4786 18.7304ZM22.6162 14.9687H25.3396V21.395C25.3396 22.1591 25.1567 22.8203 24.791 23.3787C24.4285 23.9338 23.9224 24.3632 23.2726 24.6669C22.6227 24.9673 21.8684 25.1176 21.0096 25.1176C20.1443 25.1176 19.3867 24.9673 18.7369 24.6669C18.0871 24.3632 17.5809 23.9338 17.2185 23.3787C16.8593 22.8203 16.6797 22.1591 16.6797 21.395V14.9687H19.403V21.1599C19.403 21.4701 19.4716 21.7476 19.6088 21.9926C19.7459 22.2342 19.9353 22.4236 20.1769 22.5607C20.4219 22.6979 20.6994 22.7665 21.0096 22.7665C21.3231 22.7665 21.6007 22.6979 21.8423 22.5607C22.0839 22.4236 22.2733 22.2342 22.4105 21.9926C22.5476 21.7476 22.6162 21.4701 22.6162 21.1599V14.9687ZM27.5994 25V14.9687H34.829V17.163H30.3228V18.8871H34.4568V21.0815H30.3228V22.8056H34.8094V25H27.5994Z" fill="#EFEFEF"/>
</svg>
