<svg width="40" height="40" viewBox="0 0 40 40" fill="none" xmlns="http://www.w3.org/2000/svg">
<g clip-path="url(#clip0_25_52)">
<path fill-rule="evenodd" clip-rule="evenodd" d="M36.6667 20C36.6667 29.2047 29.2047 36.6667 20 36.6667C10.7953 36.6667 3.33333 29.2047 3.33333 20C3.33333 10.7953 10.7953 3.33333 20 3.33333C29.2047 3.33333 36.6667 10.7953 36.6667 20ZM40 20C40 31.0457 31.0457 40 20 40C8.9543 40 0 31.0457 0 20C0 8.9543 8.9543 0 20 0C31.0457 0 40 8.9543 40 20ZM20 30C25.5228 30 30 25.5228 30 20C30 14.4772 25.5228 10 20 10C14.4772 10 10 14.4772 10 20C10 25.5228 14.4772 30 20 30Z" fill="#EFEFEF"/>
</g>
<defs>
<clipPath id="clip0_25_52">
<rect width="40" height="40" fill="white"/>
</clipPath>
</defs>
</svg>
